<svg xmlns="http://www.w3.org/2000/svg" id="Layer_1" viewBox="0 0 780 440"><rect x="-.04" y=".03" width="780" height="50" fill="#cc0f2f" opacity=".1" stroke-width="0"></rect><rect x="-.04" y="390.35" width="780" height="50" fill="#cc0f2f" opacity=".1" stroke-width="0"></rect><rect x="534.48" y="194.68" width="440.57" height="50" transform="translate(974.44 -535.09) rotate(90)" fill="#cc0f2f" opacity=".1" stroke-width="0"></rect><rect x="-195.31" y="194.68" width="440.57" height="50" transform="translate(244.66 194.69) rotate(90)" fill="#cc0f2f" opacity=".1" stroke-width="0"></rect><rect x="-8.58" y="-5.04" width="798.29" height="451.63" fill="#0a2960" stroke-width="0"></rect><path d="m270.37,148.35c4.44,5.59,3.33,13.73,6.02,20.34,3.73,9.18,14.2,14.19,18.18,23.27,4.95,11.3-1.57,25.56,4.52,36.29,3.32,5.84,9.63,9.2,14.55,13.77,6.57,6.1,10.74,14.72,11.47,23.66.37,4.62-.13,9.36,1.01,13.85,1.79,7.04,7.29,12.43,10.89,18.73,2.96,5.19,5.92,11.99,11.89,12.23,5.31.21,9.05-5.34,10.21-10.53,1.15-5.19.92-10.82,3.5-15.47,2.04-3.68,5.65-6.34,7.44-10.14,2.22-4.72,1.33-10.54,3.97-15.03,2.12-3.61,6.06-5.64,9.62-7.83,6.25-3.87,12.11-9.2,14.12-16.27,2.02-7.07-1.18-15.95-8.18-18.17-3.92-1.24-8.76-.52-11.6-3.49-2.42-2.54-2.22-6.73-4.47-9.43-2.52-3.02-7.1-3.08-11-2.54-3.9.54-8.15,1.38-11.56-.58-3.81-2.18-5.11-6.95-6.07-11.23-.61-2.72-3.27-3.68-5.87-4.69-3.89-1.52-8.24-1.04-12.38-1.54-7.09-.87-13.74-4.84-17.88-10.66-4.13-5.83-5.68-13.42-4.16-20.4.31-1.42.82-2.92,2.02-3.74,1.22-.84,2.83-.75,4.31-.7,6.56.2,13.07-1.14,19.5-2.47,2.2-.46,4.57-1.01,6.02-2.72,1.38-1.63,1.59-3.93,2.45-5.89,1.44-3.29,4.63-5.49,7.94-6.9,3.31-1.41,6.85-2.2,10.13-3.68,3.27-1.48,6.39-3.85,7.6-7.23,1.21-3.38-.2-7.83-3.59-9-2.03-.7-4.24-.16-6.39,0-2.14.16-4.65-.29-5.68-2.17-.62-1.13-.55-2.49-.55-3.78,0-5.32-1.6-10.62-4.54-15.05-4.05-6.11-10.28-10.22-16.82-13.74-28.26,14.1-51.03,37.56-64.25,66.33,2.52,2.15,5.61,4.04,7.64,6.6Z" fill="#a1c2f8" stroke="#000" stroke-linecap="round" stroke-linejoin="round" stroke-width="1.5"></path><path d="m366.83,77.29c.74,1.81,1.16,3.8,2.36,5.34,2.68,3.43,8.07,3.15,12,1.28,3.66-1.74,6.8-4.56,8.92-8.02,1.46-2.38,2.43-5.03,3.84-7.43,1.63-2.78,3.87-5.19,6.48-7.07-3.83-.32-7.7-.49-11.61-.49-11.27,0-22.23,1.35-32.72,3.89.93.87,1.86,1.74,2.79,2.61,3.11,2.91,6.32,5.95,7.95,9.89Z" fill="#a1c2f8" stroke="#000" stroke-linecap="round" stroke-linejoin="round" stroke-width="1.5"></path><path d="m477.03,263.29c-1.19-4.85-.66-9.95-1.17-14.92-1.02-9.76-6.01-18.58-9.46-27.76-3.45-9.19-5.22-20.03-.12-28.42,2.66-4.38,6.88-7.53,11-10.58,3.81-2.82,7.62-5.64,11.44-8.46,2.23-1.65,4.51-3.36,6.01-5.69,3.04-4.74,2.14-11.26-1.05-15.9-3.19-4.64-8.27-7.65-13.49-9.76-2.74-1.11-5.6-2.01-8.55-2.1-3.99-.11-7.85,1.29-11.76,2.09-8.18,1.69-16.9.71-24.51-2.73-2.65-1.2-5.57-3.56-4.84-6.38.23-.89.81-1.64,1.31-2.4,5-7.57,3.42-17.63,6.12-26.29,1.81-5.83,5.59-11.1,6.11-17.18.44-5.07-1.43-10.29-2.04-15.31-12.99-5.4-26.98-8.89-41.61-10.1-2.61,1.88-4.85,4.29-6.48,7.07-1.41,2.41-2.38,5.05-3.84,7.43-2.12,3.46-5.26,6.28-8.92,8.02-3.93,1.87-9.32,2.15-12-1.28-1.2-1.54-1.61-3.53-2.36-5.34-1.63-3.94-4.83-6.98-7.95-9.89-.93-.87-1.86-1.74-2.79-2.61-10.19,2.46-19.94,6.05-29.11,10.63,6.53,3.52,12.76,7.63,16.82,13.74,2.94,4.43,4.54,9.74,4.54,15.05,0,1.29-.07,2.65.55,3.78,1.03,1.88,3.54,2.33,5.68,2.17,2.14-.16,4.36-.7,6.39,0,3.4,1.17,4.8,5.61,3.59,9-1.21,3.38-4.33,5.75-7.6,7.23-3.27,1.48-6.82,2.27-10.13,3.68-3.31,1.41-6.51,3.61-7.94,6.9-.86,1.96-1.07,4.26-2.45,5.89-1.45,1.72-3.82,2.27-6.02,2.72-6.43,1.33-12.93,2.67-19.5,2.47-1.48-.05-3.09-.14-4.31.7-1.2.82-1.71,2.33-2.02,3.74-1.52,6.98.03,14.57,4.16,20.4,4.13,5.83,10.79,9.79,17.88,10.66,4.15.51,8.49.03,12.38,1.54,2.6,1.01,5.26,1.97,5.87,4.69.96,4.28,2.26,9.05,6.07,11.23,3.42,1.95,7.66,1.12,11.56.58,3.9-.54,8.48-.48,11,2.54,2.24,2.69,2.05,6.89,4.47,9.43,2.84,2.97,7.68,2.25,11.6,3.49,7.01,2.22,10.2,11.1,8.18,18.17-2.02,7.07-7.87,12.41-14.12,16.27-3.56,2.2-7.5,4.23-9.62,7.83-2.64,4.5-1.75,10.32-3.97,15.03-1.79,3.8-5.4,6.47-7.44,10.14-2.58,4.65-2.35,10.28-3.5,15.47-1.15,5.19-4.9,10.74-10.21,10.53-5.97-.24-8.93-7.04-11.89-12.23-3.6-6.3-9.1-11.69-10.89-18.73-1.14-4.5-.64-9.23-1.01-13.85-.72-8.94-4.9-17.55-11.47-23.66-4.92-4.57-11.24-7.93-14.55-13.77-6.09-10.73.42-24.99-4.52-36.29-3.97-9.08-14.44-14.09-18.18-23.27-2.69-6.61-1.58-14.75-6.02-20.34-2.03-2.56-5.12-4.45-7.64-6.6-8.09,17.6-12.6,37.19-12.6,57.83,0,76.59,62.09,138.68,138.68,138.68,42.51,0,80.54-19.13,105.98-49.25-4.29-4.27-8.22-8.89-11.72-13.83-2.58-3.65-4.97-7.55-6.04-11.9Z" fill="#c7dbf9" stroke="#000" stroke-linecap="round" stroke-linejoin="round" stroke-width="1.5"></path><path d="m442.03,71.49c.61,5.02,2.48,10.24,2.04,15.31-.52,6.08-4.3,11.35-6.11,17.18-2.69,8.66-1.12,18.72-6.12,26.29-.5.77-1.08,1.51-1.31,2.4-.74,2.82,2.19,5.18,4.84,6.38,7.61,3.45,16.32,4.42,24.51,2.73,3.91-.81,7.76-2.2,11.76-2.09,2.95.08,5.82.99,8.55,2.1,5.22,2.11,10.29,5.13,13.49,9.76,3.19,4.64,4.1,11.16,1.05,15.9-1.5,2.34-3.78,4.04-6.01,5.69-3.81,2.82-7.62,5.64-11.44,8.46-4.12,3.05-8.34,6.21-11,10.58-5.1,8.38-3.32,19.23.12,28.42,3.45,9.19,8.44,18,9.46,27.76.52,4.97-.01,10.07,1.17,14.92,1.06,4.35,3.45,8.25,6.04,11.9,3.49,4.94,7.43,9.56,11.72,13.83,20.4-24.15,32.7-55.35,32.7-89.44,0-57.73-35.28-107.22-85.46-128.09Z" fill="#a1c2f8" stroke="#000" stroke-linecap="round" stroke-linejoin="round" stroke-width="1.5"></path><path d="m301.38,332.09h175.68c4.26,0,7.72,3.46,7.72,7.72v17.04h-191.12v-17.04c0-4.26,3.46-7.72,7.72-7.72Z" fill="#0c3f89" stroke="#000" stroke-linecap="round" stroke-linejoin="round" stroke-width="1.5"></path><path d="m283.92,356.97h209.7c4.26,0,7.72,3.46,7.72,7.72v17.04h-225.13v-17.04c0-4.26,3.46-7.72,7.72-7.72Z" fill="#0c3f89" stroke="#000" stroke-linecap="round" stroke-linejoin="round" stroke-width="1.5"></path><circle cx="229.31" cy="250.67" r="54.38" fill="#205bc3" stroke="#000" stroke-miterlimit="10" stroke-width="1.5"></circle><path d="m242.09,230.96c-2.26.02-4.03,1.96-4.03,4.22v32.34c0,2.26,1.77,4.2,4.03,4.22,2.47.02,4.12-1.62,4.12-4.08v-32.62c0-2.46-1.65-4.1-4.12-4.08h0Z" fill="#fff" stroke="#000" stroke-miterlimit="10" stroke-width="1.5"></path><path d="m254.32,239.12c-2.26.02-4.03,1.96-4.03,4.22v16.03c0,2.26,1.77,4.2,4.03,4.22,2.47.02,4.12-1.62,4.12-4.08v-16.31c0-2.46-1.65-4.1-4.12-4.08h0Z" fill="#fff" stroke="#000" stroke-miterlimit="10" stroke-width="1.5"></path><path d="m229.86,218.73c-2.26.02-4.03,1.96-4.03,4.22v56.8c0,2.26,1.77,4.2,4.03,4.22,2.47.02,4.12-1.62,4.12-4.08v-57.08c0-2.46-1.65-4.1-4.12-4.08h0Z" fill="#fff" stroke="#000" stroke-miterlimit="10" stroke-width="1.5"></path><path d="m217.63,239.12c-2.26.02-4.03,1.96-4.03,4.22v16.03c0,2.26,1.77,4.2,4.03,4.22,2.47.02,4.12-1.62,4.12-4.08v-16.31c0-2.46-1.65-4.1-4.12-4.08h0Z" fill="#fff" stroke="#000" stroke-miterlimit="10" stroke-width="1.5"></path><path d="m205.4,230.96c-2.26.02-4.03,1.96-4.03,4.22v32.34c0,2.26,1.77,4.2,4.03,4.22,2.47.02,4.12-1.62,4.12-4.08v-32.62c0-2.46-1.65-4.1-4.12-4.08h0Z" fill="#fff" stroke="#000" stroke-miterlimit="10" stroke-width="1.5"></path><circle cx="348.44" cy="211.7" r="33.72" fill="#fff" stroke="#162020" stroke-miterlimit="10" stroke-width="1.5"></circle><path d="m367.24,205.36c0-5.2-4.22-9.42-9.42-9.42-4.37,0-8.02,3-9.08,7.04-1.06-4.04-4.71-7.04-9.08-7.04-5.2,0-9.42,4.22-9.42,9.42,0,0,0,.63.17,1.7.02.09.02.18.04.27.7,4.12,4.52,14.1,18.02,23.9,0,0,16.21-10.73,18.5-23.73.16-.69.27-1.4.27-2.14Z" fill="#0c3f89" stroke="#000" stroke-linecap="round" stroke-linejoin="round" stroke-width="1.5"></path><circle cx="422.27" cy="152.78" r="41.73" fill="#205bc3" stroke="#000" stroke-miterlimit="10" stroke-width="1.5"></circle><path d="m443.92,156.98l-1.44.45.9,1.2c.41.55.63,1.2.63,1.88,0,1.54-1.1,2.83-2.61,3.09l-1.44.24.67,1.29c.23.45.35.93.35,1.44,0,1.65-1.29,3.02-2.93,3.12h-18.06c-.05,0-2.24-.04-3.84-1.4-.35-.3-.67-.5-1-.66l-.39-.18v-16.7l1.88-1.61,6.36-11.79c.28-.46.49-.96.61-1.48.13-.53.17-1.08.13-1.64l-.5-6.61c.44-.25.94-.38,1.44-.38,2.74,0,5.1,4.39,5.1,7.98,0,.5-.04,1-.11,1.49l-1.1,7.16h13.78c.88,0,1.75.37,2.39,1.01.59.6.92,1.36.91,2.15,0,.98-.46,1.88-1.25,2.47l-1.28.97,1.4.79c.98.56,1.59,1.6,1.59,2.73,0,1.38-.88,2.58-2.2,2.99h0Z" fill="#fff" stroke="#162020" stroke-miterlimit="10" stroke-width="1.5"></path><rect x="403.01" y="148.04" width="12.32" height="21.87" fill="#fff" stroke="#162020" stroke-miterlimit="10" stroke-width="1.5"></rect><circle cx="537.1" cy="218.33" r="33.89" fill="#0c3f89" stroke="#000" stroke-linecap="round" stroke-linejoin="round" stroke-width="1.5"></circle><ellipse cx="537.08" cy="210.51" rx="11.82" ry="11.78" fill="#fff" stroke="#162020" stroke-miterlimit="10" stroke-width="1.5"></ellipse><path d="m537.1,252.22c-7.82.01-15.4-2.69-21.45-7.65,1.2-9.51,4.88-15.47,11.45-17.94,3.11-1.14,6.41-1.7,9.72-1.65h0s.19,0,.19,0h.19s0,0,0,0c3.32-.05,6.61.51,9.72,1.65,6.6,2.48,10.28,8.48,11.47,18.06-6.02,4.88-13.54,7.54-21.29,7.53Z" fill="#fff" stroke="#162020" stroke-miterlimit="10" stroke-width="1.5"></path><circle cx="591.21" cy="263.2" r="21.16" fill="#a1c2f8" stroke="#000" stroke-linecap="round" stroke-linejoin="round" stroke-width="1.5"></circle><ellipse cx="591.2" cy="258.31" rx="7.38" ry="7.35" fill="#fff" stroke="#162020" stroke-miterlimit="10" stroke-width="1.5"></ellipse><path d="m591.21,284.36c-4.88,0-9.62-1.68-13.39-4.78.75-5.94,3.05-9.66,7.15-11.2,1.94-.71,4-1.06,6.07-1.03h0s.12,0,.12,0h.12s0,0,0,0c2.07-.03,4.13.32,6.07,1.03,4.12,1.55,6.42,5.3,7.16,11.28-3.76,3.05-8.45,4.71-13.29,4.7Z" fill="#fff" stroke="#162020" stroke-miterlimit="10" stroke-width="1.5"></path><path d="m569.06,175.98v-54.97c0-3.65,2.96-6.62,6.62-6.62h67.76c3.65,0,6.62,2.96,6.62,6.62v39.1c0,3.65-2.96,6.62-6.62,6.62h-53.04c-1.04,0-2.07.32-2.93.91l-16.16,11.15c-.98.67-2.31-.04-2.28-1.23l.03-1.57Z" fill="#fff" stroke="#162020" stroke-miterlimit="10" stroke-width="1.5"></path><line x1="636.54" y1="142.36" x2="582.28" y2="142.36" fill="none" stroke="#162020" stroke-linecap="round" stroke-linejoin="round" stroke-width="1.5"></line><line x1="636.54" y1="132.81" x2="582.28" y2="132.81" fill="none" stroke="#162020" stroke-linecap="round" stroke-linejoin="round" stroke-width="1.5"></line><line x1="636.54" y1="150.78" x2="582.28" y2="150.78" fill="none" stroke="#162020" stroke-linecap="round" stroke-linejoin="round" stroke-width="1.5"></line><path d="m154.78,151.62c.18-4.45,1.95-8.84,5.34-12.24.14-.14.29-.26.44-.4,3.55-3.33,8.09-5,12.64-4.98v-19.04c-9.42-.02-18.84,3.5-26.11,10.55-.14.14-.29.27-.43.41-7.11,7.11-10.75,16.38-10.94,25.7h19.05Z" fill="#205bc3" stroke="#162020" stroke-miterlimit="10" stroke-width="1.5"></path><path d="m185.75,139.07l13.47-13.47c-7.24-7.06-16.62-10.61-26.02-10.63v19.04c4.52.02,9.03,1.72,12.55,5.06h0Z" fill="#fff" stroke="#000" stroke-linecap="round" stroke-linejoin="round" stroke-width="1.5"></path><path d="m173.19,189.77c9.54-.02,19.08-3.67,26.36-10.95.14-.14.27-.29.41-.43l-13.47-13.47c-.14.14-.26.3-.4.44-3.56,3.56-8.23,5.35-12.9,5.38-4.73.02-9.47-1.77-13.08-5.38-.11-.11-.21-.23-.31-.35-3.55-3.74-5.22-8.59-5.03-13.39h-19.05c-.19,9.67,3.34,19.41,10.62,26.86.11.11.21.23.32.34,7.33,7.33,16.93,10.98,26.54,10.95h0Z" fill="#a1c2f8" stroke="#000" stroke-linecap="round" stroke-linejoin="round" stroke-width="1.5"></path><path d="m210.49,151.62c-.19-9.32-3.82-18.59-10.94-25.7-.11-.11-.23-.21-.34-.32l-13.47,13.47c.11.11.24.2.35.31,3.4,3.4,5.16,7.79,5.34,12.24.19,4.76-1.45,9.57-4.95,13.3l13.47,13.47c7.21-7.44,10.72-17.13,10.53-26.77h0Z" fill="#c7dbf9" stroke="#000" stroke-miterlimit="10" stroke-width="1.5"></path></svg>