<?xml version="1.0" encoding="UTF-8" standalone="no"?>
<svg
   xmlns:dc="http://purl.org/dc/elements/1.1/"
   xmlns:cc="http://creativecommons.org/ns#"
   xmlns:rdf="http://www.w3.org/1999/02/22-rdf-syntax-ns#"
   xmlns:svg="http://www.w3.org/2000/svg"
   xmlns="http://www.w3.org/2000/svg"
   xmlns:sodipodi="http://sodipodi.sourceforge.net/DTD/sodipodi-0.dtd"
   xmlns:inkscape="http://www.inkscape.org/namespaces/inkscape"
   version="1.1"
   id="Layer_1"
   x="0px"
   y="0px"
   width="108.45306"
   height="108.45689"
   viewBox="0 0 108.45306 108.45689"
   enable-background="new 0 0 100 100"
   xml:space="preserve"
   inkscape:version="0.48.5 r10040"
   sodipodi:docname="Noun_project_1248 copie 3.svg"><metadata
     id="metadata11"><rdf:RDF><cc:Work
         rdf:about=""><dc:format>image/svg+xml</dc:format><dc:type
           rdf:resource="http://purl.org/dc/dcmitype/StillImage" /></cc:Work></rdf:RDF></metadata><defs
     id="defs9" /><sodipodi:namedview
     pagecolor="#ffffff"
     bordercolor="#666666"
     borderopacity="1"
     objecttolerance="10"
     gridtolerance="10"
     guidetolerance="10"
     inkscape:pageopacity="0"
     inkscape:pageshadow="2"
     inkscape:window-width="1280"
     inkscape:window-height="669"
     id="namedview7"
     showgrid="false"
     inkscape:snap-object-midpoints="true"
     inkscape:snap-center="true"
     inkscape:snap-global="false"
     showguides="true"
     inkscape:guide-bbox="true"
     inkscape:object-paths="true"
     inkscape:object-nodes="true"
     inkscape:snap-intersection-paths="true"
     fit-margin-top="0"
     fit-margin-left="0"
     fit-margin-right="0"
     fit-margin-bottom="0"
     inkscape:zoom="1.3876971"
     inkscape:cx="-56.158214"
     inkscape:cy="-55.118114"
     inkscape:window-x="0"
     inkscape:window-y="1"
     inkscape:window-maximized="1"
     inkscape:current-layer="g3" /><g
     id="g3"
     transform="translate(-63.871632,12.162289)"><path
       sodipodi:type="arc"
       style="fill:#eaecf0;fill-opacity:1;fill-rule:nonzero;stroke:none"
       id="path3013"
       sodipodi:cx="-0.18015459"
       sodipodi:cy="82.190559"
       sodipodi:rx="37.652309"
       sodipodi:ry="37.652309"
       d="m 37.472155,82.190559 c 0,20.794801 -16.857513,37.652311 -37.65230959,37.652311 -20.79479641,0 -37.65230941,-16.85751 -37.65230941,-37.652311 0,-20.794796 16.857513,-37.652309 37.65230941,-37.652309 20.79479659,0 37.65230959,16.857513 37.65230959,37.652309 z"
       transform="matrix(1.4401914,0,0,1.4401914,118.35762,-76.305894)" /><rect
       style="fill:#873636;fill-opacity:1;fill-rule:nonzero;stroke:none"
       id="rect3032"
       width="28.089518"
       height="7.4156327"
       x="34.381569"
       y="17.379366"
       ry="1.498108"
       transform="matrix(3.0620712,0,0,3.0620712,-30.186706,-22.998692)" /><g
       id="g3002"
       transform="translate(1.0429688e-6,-2.4364416)" /><rect
       ry="2.1648479"
       transform="matrix(1.4137042,0,0,1.0568945,49.161127,54.416377)"
       y="11.012409"
       x="37.827217"
       height="19.700115"
       width="21.872372"
       id="rect3812"
       style="fill:#666666;fill-opacity:1;fill-rule:nonzero;stroke:none" /><rect
       style="fill:#808080;fill-opacity:1;fill-rule:nonzero;stroke:none"
       id="rect3020"
       width="21.872372"
       height="19.700115"
       x="37.827217"
       y="11.012409"
       transform="matrix(3.1784997,0,0,3.1784997,-36.896308,-24.739584)"
       ry="2.1648479" /><g
       id="g3026"
       transform="matrix(3.0620712,0,0,3.0620712,-30.301396,-21.393133)"
       style="fill:#ffffff"><path
         transform="matrix(1.9375,0,0,1.9375,-38.028526,-15.586236)"
         d="m 43.520027,17.304461 c 0,0.992858 -0.804871,1.797729 -1.797729,1.797729 -0.992859,0 -1.797729,-0.804871 -1.797729,-1.797729 0,-0.992859 0.80487,-1.79773 1.797729,-1.79773 0.992858,0 1.797729,0.804871 1.797729,1.79773 z"
         sodipodi:ry="1.7977291"
         sodipodi:rx="1.7977291"
         sodipodi:cy="17.304461"
         sodipodi:cx="41.722298"
         id="path3022"
         style="fill:#ffffff;stroke:none"
         sodipodi:type="arc" /><path
         sodipodi:type="arc"
         style="fill:#ffffff;stroke:none"
         id="path3024"
         sodipodi:cx="41.722298"
         sodipodi:cy="17.304461"
         sodipodi:rx="1.7977291"
         sodipodi:ry="1.7977291"
         d="m 43.520027,17.304461 c 0,0.992858 -0.804871,1.797729 -1.797729,1.797729 -0.992859,0 -1.797729,-0.804871 -1.797729,-1.797729 0,-0.992859 0.80487,-1.79773 1.797729,-1.79773 0.992858,0 1.797729,0.804871 1.797729,1.79773 z"
         transform="matrix(1.9375,0,0,1.9375,-26.717814,-15.586236)" /></g><rect
       style="fill:#ffffff;fill-opacity:1;fill-rule:nonzero;stroke:none"
       id="rect3030"
       width="16.029751"
       height="4.7939444"
       x="40.299095"
       y="23.746325"
       ry="2.2471614"
       transform="matrix(3.0620712,0,0,3.0620712,-29.842663,-21.278453)" /><path
       sodipodi:type="arc"
       style="fill:#2a4b8d;fill-opacity:1;fill-rule:nonzero;stroke:none"
       id="path3802"
       sodipodi:cx="24.119532"
       sodipodi:cy="14.458056"
       sodipodi:rx="0.82395917"
       sodipodi:ry="0.82395917"
       d="m 24.943491,14.458056 c 0,0.455061 -0.368899,0.82396 -0.823959,0.82396 -0.45506,0 -0.82396,-0.368899 -0.82396,-0.82396 0,-0.45506 0.3689,-0.823959 0.82396,-0.823959 0.45506,0 0.823959,0.368899 0.823959,0.823959 z"
       transform="matrix(4.5235141,0,0,4.5235141,-8.3239923,-31.857259)" /><path
       transform="matrix(2.1573682,0,0,2.1573682,50.695947,0.40300458)"
       d="m 24.943491,14.458056 c 0,0.455061 -0.368899,0.82396 -0.823959,0.82396 -0.45506,0 -0.82396,-0.368899 -0.82396,-0.82396 0,-0.45506 0.3689,-0.823959 0.82396,-0.823959 0.45506,0 0.823959,0.368899 0.823959,0.823959 z"
       sodipodi:ry="0.82395917"
       sodipodi:rx="0.82395917"
       sodipodi:cy="14.458056"
       sodipodi:cx="24.119532"
       id="path3806"
       style="fill:#ffffff;fill-opacity:1;fill-rule:nonzero;stroke:none"
       sodipodi:type="arc" /><path
       transform="matrix(4.5235141,0,0,4.5235141,26.310213,-31.857259)"
       d="m 24.943491,14.458056 c 0,0.455061 -0.368899,0.82396 -0.823959,0.82396 -0.45506,0 -0.82396,-0.368899 -0.82396,-0.82396 0,-0.45506 0.3689,-0.823959 0.82396,-0.823959 0.45506,0 0.823959,0.368899 0.823959,0.823959 z"
       sodipodi:ry="0.82395917"
       sodipodi:rx="0.82395917"
       sodipodi:cy="14.458056"
       sodipodi:cx="24.119532"
       id="path3808"
       style="fill:#2a4b8d;fill-opacity:1;fill-rule:nonzero;stroke:none"
       sodipodi:type="arc" /><path
       sodipodi:type="arc"
       style="fill:#ffffff;fill-opacity:1;fill-rule:nonzero;stroke:none"
       id="path3810"
       sodipodi:cx="24.119532"
       sodipodi:cy="14.458056"
       sodipodi:rx="0.82395917"
       sodipodi:ry="0.82395917"
       d="m 24.943491,14.458056 c 0,0.455061 -0.368899,0.82396 -0.823959,0.82396 -0.45506,0 -0.82396,-0.368899 -0.82396,-0.82396 0,-0.45506 0.3689,-0.823959 0.82396,-0.823959 0.45506,0 0.823959,0.368899 0.823959,0.823959 z"
       transform="matrix(2.1573682,0,0,2.1573682,85.330152,0.40300458)" /><path
       style="fill:#808080;fill-opacity:1;fill-rule:nonzero;stroke:none"
       d="m 61,65.375 c 9.930898,12.572481 25.297204,20.65625 42.5625,20.65625 17.26217,0 32.63143,-8.087676 42.5625,-20.65625 -0.0824,-0.0021 -0.16707,0 -0.25,0 l -84.59375,0 c -0.0933,0 -0.188607,-0.0026 -0.28125,0 z"
       transform="translate(14.52208,10.263355)"
       id="rect3816"
       inkscape:connector-curvature="0" /></g></svg>